<mxfile host="app.diagrams.net" modified="2024-01-02T07:54:26.848Z" agent="Mozilla/5.0 (Windows NT 10.0; Win64; x64) AppleWebKit/537.36 (KHTML, like Gecko) Chrome/120.0.0.0 Safari/537.36 Edg/120.0.0.0" etag="-7BlCUGDyQXhiIEBVSfH" version="22.1.16" type="github">
  <diagram name="第 1 页" id="_H7OL5QzuDB1bZUHE0yp">
    <mxGraphModel dx="911" dy="507" grid="1" gridSize="10" guides="1" tooltips="1" connect="1" arrows="1" fold="1" page="1" pageScale="1" pageWidth="850" pageHeight="1100" math="0" shadow="0">
      <root>
        <mxCell id="0" />
        <mxCell id="1" parent="0" />
        <mxCell id="lsxHzdbqnV-ghvsLPrdJ-1" value="" style="endArrow=none;html=1;rounded=0;" edge="1" parent="1">
          <mxGeometry width="50" height="50" relative="1" as="geometry">
            <mxPoint x="140" y="320" as="sourcePoint" />
            <mxPoint x="530" y="320" as="targetPoint" />
          </mxGeometry>
        </mxCell>
        <mxCell id="lsxHzdbqnV-ghvsLPrdJ-2" value="" style="endArrow=classic;html=1;rounded=0;" edge="1" parent="1">
          <mxGeometry width="50" height="50" relative="1" as="geometry">
            <mxPoint x="140" y="380" as="sourcePoint" />
            <mxPoint x="140" y="320" as="targetPoint" />
          </mxGeometry>
        </mxCell>
        <mxCell id="lsxHzdbqnV-ghvsLPrdJ-3" value="ClearDTC Start&lt;br&gt;14 FF FF FF&lt;br&gt;u16FaultCount=19" style="text;html=1;strokeColor=#6c8ebf;fillColor=#dae8fc;align=left;verticalAlign=middle;whiteSpace=wrap;rounded=0;" vertex="1" parent="1">
          <mxGeometry x="90" y="380" width="110" height="40" as="geometry" />
        </mxCell>
        <mxCell id="lsxHzdbqnV-ghvsLPrdJ-4" value="" style="endArrow=classic;html=1;rounded=0;" edge="1" parent="1">
          <mxGeometry width="50" height="50" relative="1" as="geometry">
            <mxPoint x="250" y="380" as="sourcePoint" />
            <mxPoint x="250" y="320" as="targetPoint" />
          </mxGeometry>
        </mxCell>
        <mxCell id="lsxHzdbqnV-ghvsLPrdJ-5" value="u16FaultCount=0" style="text;html=1;strokeColor=#9673a6;fillColor=#e1d5e7;align=center;verticalAlign=middle;whiteSpace=wrap;rounded=0;" vertex="1" parent="1">
          <mxGeometry x="210" y="380" width="100" height="30" as="geometry" />
        </mxCell>
        <mxCell id="lsxHzdbqnV-ghvsLPrdJ-6" value="" style="endArrow=classic;html=1;rounded=0;" edge="1" parent="1">
          <mxGeometry width="50" height="50" relative="1" as="geometry">
            <mxPoint x="300" y="260" as="sourcePoint" />
            <mxPoint x="300" y="320" as="targetPoint" />
          </mxGeometry>
        </mxCell>
        <mxCell id="lsxHzdbqnV-ghvsLPrdJ-7" value="IMU_MISSING Failed u16FaultCount++" style="text;html=1;strokeColor=#b85450;fillColor=#f8cecc;align=center;verticalAlign=middle;whiteSpace=wrap;rounded=0;" vertex="1" parent="1">
          <mxGeometry x="240" y="230" width="130" height="30" as="geometry" />
        </mxCell>
        <mxCell id="lsxHzdbqnV-ghvsLPrdJ-8" value="" style="endArrow=classic;html=1;rounded=0;" edge="1" parent="1">
          <mxGeometry width="50" height="50" relative="1" as="geometry">
            <mxPoint x="360" y="380" as="sourcePoint" />
            <mxPoint x="360" y="320" as="targetPoint" />
          </mxGeometry>
        </mxCell>
        <mxCell id="lsxHzdbqnV-ghvsLPrdJ-9" value="&lt;span style=&quot;color: rgb(0, 0, 0); font-family: Helvetica; font-size: 12px; font-style: normal; font-variant-ligatures: normal; font-variant-caps: normal; font-weight: 400; letter-spacing: normal; orphans: 2; text-align: center; text-indent: 0px; text-transform: none; widows: 2; word-spacing: 0px; -webkit-text-stroke-width: 0px; text-decoration-thickness: initial; text-decoration-style: initial; text-decoration-color: initial; float: none; display: inline !important;&quot;&gt;u16FaultCount--&lt;/span&gt;" style="text;whiteSpace=wrap;html=1;fillColor=#e1d5e7;strokeColor=#9673a6;labelBackgroundColor=none;" vertex="1" parent="1">
          <mxGeometry x="320" y="380" width="90" height="30" as="geometry" />
        </mxCell>
        <mxCell id="lsxHzdbqnV-ghvsLPrdJ-10" value="" style="endArrow=classic;html=1;rounded=0;" edge="1" parent="1">
          <mxGeometry width="50" height="50" relative="1" as="geometry">
            <mxPoint x="450" y="380" as="sourcePoint" />
            <mxPoint x="450" y="320" as="targetPoint" />
          </mxGeometry>
        </mxCell>
        <mxCell id="lsxHzdbqnV-ghvsLPrdJ-11" value="ClearDTC End" style="text;html=1;strokeColor=#6c8ebf;fillColor=#dae8fc;align=center;verticalAlign=middle;whiteSpace=wrap;rounded=0;" vertex="1" parent="1">
          <mxGeometry x="420" y="380" width="60" height="30" as="geometry" />
        </mxCell>
        <mxCell id="lsxHzdbqnV-ghvsLPrdJ-12" value="" style="endArrow=classic;html=1;rounded=0;" edge="1" parent="1">
          <mxGeometry width="50" height="50" relative="1" as="geometry">
            <mxPoint x="529.8" y="380" as="sourcePoint" />
            <mxPoint x="529.8" y="320" as="targetPoint" />
          </mxGeometry>
        </mxCell>
        <mxCell id="lsxHzdbqnV-ghvsLPrdJ-13" value="Actual:&lt;br&gt;WL is Off/Flashing&lt;br&gt;u16FaultCount=0" style="text;html=1;strokeColor=#82b366;fillColor=#d5e8d4;align=left;verticalAlign=middle;whiteSpace=wrap;rounded=0;" vertex="1" parent="1">
          <mxGeometry x="490" y="380" width="100" height="40" as="geometry" />
        </mxCell>
        <mxCell id="lsxHzdbqnV-ghvsLPrdJ-14" value="" style="endArrow=classic;html=1;rounded=0;" edge="1" parent="1">
          <mxGeometry width="50" height="50" relative="1" as="geometry">
            <mxPoint x="529.8" y="260" as="sourcePoint" />
            <mxPoint x="529.8" y="320" as="targetPoint" />
          </mxGeometry>
        </mxCell>
        <mxCell id="lsxHzdbqnV-ghvsLPrdJ-15" value="Expect:&lt;br&gt;WL is On&lt;br&gt;u16FaultCount=19" style="text;html=1;strokeColor=#b85450;fillColor=#f8cecc;align=left;verticalAlign=middle;whiteSpace=wrap;rounded=0;" vertex="1" parent="1">
          <mxGeometry x="480" y="220" width="100" height="40" as="geometry" />
        </mxCell>
        <mxCell id="lsxHzdbqnV-ghvsLPrdJ-16" value="" style="endArrow=classic;startArrow=classic;html=1;rounded=0;fillColor=#dae8fc;strokeColor=#6c8ebf;" edge="1" parent="1">
          <mxGeometry width="50" height="50" relative="1" as="geometry">
            <mxPoint x="140" y="350" as="sourcePoint" />
            <mxPoint x="250" y="350" as="targetPoint" />
          </mxGeometry>
        </mxCell>
        <mxCell id="lsxHzdbqnV-ghvsLPrdJ-17" value="" style="endArrow=classic;startArrow=classic;html=1;rounded=0;fillColor=#d5e8d4;strokeColor=#82b366;" edge="1" parent="1">
          <mxGeometry width="50" height="50" relative="1" as="geometry">
            <mxPoint x="250" y="360" as="sourcePoint" />
            <mxPoint x="300" y="360" as="targetPoint" />
          </mxGeometry>
        </mxCell>
        <mxCell id="lsxHzdbqnV-ghvsLPrdJ-19" value="" style="endArrow=none;html=1;rounded=0;dashed=1;" edge="1" parent="1">
          <mxGeometry width="50" height="50" relative="1" as="geometry">
            <mxPoint x="300" y="370" as="sourcePoint" />
            <mxPoint x="300" y="320" as="targetPoint" />
          </mxGeometry>
        </mxCell>
        <mxCell id="lsxHzdbqnV-ghvsLPrdJ-20" value="" style="endArrow=classic;startArrow=classic;html=1;rounded=0;fillColor=#ffe6cc;strokeColor=#d79b00;" edge="1" parent="1">
          <mxGeometry width="50" height="50" relative="1" as="geometry">
            <mxPoint x="300" y="350" as="sourcePoint" />
            <mxPoint x="450" y="350" as="targetPoint" />
          </mxGeometry>
        </mxCell>
        <mxCell id="lsxHzdbqnV-ghvsLPrdJ-21" value="T1" style="text;html=1;strokeColor=none;fillColor=none;align=center;verticalAlign=middle;whiteSpace=wrap;rounded=0;fontColor=#6c8ebf;" vertex="1" parent="1">
          <mxGeometry x="180" y="340" width="30" height="10" as="geometry" />
        </mxCell>
        <mxCell id="lsxHzdbqnV-ghvsLPrdJ-23" value="T2" style="text;html=1;strokeColor=none;fillColor=none;align=center;verticalAlign=middle;whiteSpace=wrap;rounded=0;fontColor=#82b366;" vertex="1" parent="1">
          <mxGeometry x="260" y="350" width="30" height="10" as="geometry" />
        </mxCell>
        <mxCell id="lsxHzdbqnV-ghvsLPrdJ-24" value="T3" style="text;html=1;align=center;verticalAlign=middle;whiteSpace=wrap;rounded=0;fontColor=#d79b00;" vertex="1" parent="1">
          <mxGeometry x="360" y="340" width="30" height="10" as="geometry" />
        </mxCell>
        <mxCell id="lsxHzdbqnV-ghvsLPrdJ-25" value="清DTC时放开Internal DTC条件, 导致WL状态不对" style="text;html=1;strokeColor=#d6b656;fillColor=#fff2cc;align=left;verticalAlign=middle;whiteSpace=wrap;rounded=0;" vertex="1" parent="1">
          <mxGeometry x="70" y="190" width="170" height="30" as="geometry" />
        </mxCell>
        <mxCell id="lsxHzdbqnV-ghvsLPrdJ-26" value="T1: 14 FF FF FF清DTC会遍历所有的FaultEvent, 但是报Pass的Fault也会调用WLMgr_ClearFltStatus函数, 导致u16FaultCount--, 直至减到0;&lt;br&gt;T2: 在清除DTC的过程中, IMU_MISSING的DTC在被清除后重新上报, 会导致u16FaultCount=1;&lt;br&gt;T3: 由于清除DTC操作还未完成, 并且T2之后还有内部DTC没有遍历到的情况下, 会导致u16FaultCount=0;" style="text;html=1;strokeColor=#6c8ebf;fillColor=#dae8fc;align=left;verticalAlign=middle;whiteSpace=wrap;rounded=0;" vertex="1" parent="1">
          <mxGeometry x="90" y="440" width="570" height="80" as="geometry" />
        </mxCell>
        <mxCell id="lsxHzdbqnV-ghvsLPrdJ-27" value="存在的问题: (u16FaultCount被重复--, ClearDTC过程中Fault重新上报)&lt;br&gt;(1) 由于DEM配置了Internal Fault 存在的情况下不会进行Clear操作, 所以内部错的不应该导致u16FaultCount--;&lt;br&gt;(2) 即使有Fault在ClearDTC的过程中重新上报了Failed, 也不应该影响到u16FaultCount的值;" style="text;html=1;strokeColor=#b85450;fillColor=#f8cecc;align=left;verticalAlign=middle;whiteSpace=wrap;rounded=0;" vertex="1" parent="1">
          <mxGeometry x="90" y="540" width="570" height="60" as="geometry" />
        </mxCell>
        <mxCell id="lsxHzdbqnV-ghvsLPrdJ-28" value="T: 清DTC时长实测大概16~20ms左右(T1+T2+T3)" style="text;html=1;strokeColor=none;fillColor=none;align=center;verticalAlign=middle;whiteSpace=wrap;rounded=0;" vertex="1" parent="1">
          <mxGeometry x="160" y="280" width="270" height="30" as="geometry" />
        </mxCell>
        <mxCell id="lsxHzdbqnV-ghvsLPrdJ-31" value="" style="shape=flexArrow;endArrow=classic;html=1;rounded=0;fillColor=#dae8fc;strokeColor=#6c8ebf;" edge="1" parent="1">
          <mxGeometry width="50" height="50" relative="1" as="geometry">
            <mxPoint x="680" y="409.43" as="sourcePoint" />
            <mxPoint x="790" y="409.72" as="targetPoint" />
          </mxGeometry>
        </mxCell>
        <mxCell id="lsxHzdbqnV-ghvsLPrdJ-32" value="Clear Extenal DTC会有影响吗?" style="text;html=1;strokeColor=#6c8ebf;fillColor=#dae8fc;align=center;verticalAlign=middle;whiteSpace=wrap;rounded=0;fontStyle=1" vertex="1" parent="1">
          <mxGeometry x="680" y="350" width="80" height="50" as="geometry" />
        </mxCell>
        <mxCell id="lsxHzdbqnV-ghvsLPrdJ-34" value="b. u16FaultCount被重复--" style="text;html=1;strokeColor=#82b366;fillColor=#d5e8d4;align=center;verticalAlign=middle;whiteSpace=wrap;rounded=0;" vertex="1" parent="1">
          <mxGeometry x="810" y="455" width="160" height="30" as="geometry" />
        </mxCell>
        <mxCell id="lsxHzdbqnV-ghvsLPrdJ-35" value="a. Clear DTC过程中Fault重新上报" style="text;html=1;strokeColor=#82b366;fillColor=#d5e8d4;align=center;verticalAlign=middle;whiteSpace=wrap;rounded=0;" vertex="1" parent="1">
          <mxGeometry x="810" y="310" width="160" height="30" as="geometry" />
        </mxCell>
        <mxCell id="lsxHzdbqnV-ghvsLPrdJ-37" value="" style="shape=curlyBracket;whiteSpace=wrap;html=1;rounded=1;labelPosition=left;verticalLabelPosition=middle;align=right;verticalAlign=middle;" vertex="1" parent="1">
          <mxGeometry x="980" y="260" width="20" height="120" as="geometry" />
        </mxCell>
        <mxCell id="lsxHzdbqnV-ghvsLPrdJ-39" value="" style="shape=curlyBracket;whiteSpace=wrap;html=1;rounded=1;labelPosition=left;verticalLabelPosition=middle;align=right;verticalAlign=middle;" vertex="1" parent="1">
          <mxGeometry x="980" y="410" width="20" height="120" as="geometry" />
        </mxCell>
        <mxCell id="lsxHzdbqnV-ghvsLPrdJ-40" value="诊断周期小于20ms(T)" style="text;html=1;strokeColor=#82b366;fillColor=#d5e8d4;align=center;verticalAlign=middle;whiteSpace=wrap;rounded=0;" vertex="1" parent="1">
          <mxGeometry x="1010" y="260" width="100" height="30" as="geometry" />
        </mxCell>
        <mxCell id="lsxHzdbqnV-ghvsLPrdJ-41" value="在T时间内先Clear后, 再重新上报Failed" style="text;html=1;strokeColor=#82b366;fillColor=#d5e8d4;align=center;verticalAlign=middle;whiteSpace=wrap;rounded=0;" vertex="1" parent="1">
          <mxGeometry x="1010" y="340" width="100" height="40" as="geometry" />
        </mxCell>
        <mxCell id="lsxHzdbqnV-ghvsLPrdJ-42" value="多个FaultEvent Mapping 到同一个DTC" style="text;html=1;strokeColor=#82b366;fillColor=#d5e8d4;align=center;verticalAlign=middle;whiteSpace=wrap;rounded=0;" vertex="1" parent="1">
          <mxGeometry x="1000" y="400" width="100" height="40" as="geometry" />
        </mxCell>
        <mxCell id="lsxHzdbqnV-ghvsLPrdJ-43" value="多个FaultEvent清除操作必须在满足a点条件的Fault后面" style="text;html=1;strokeColor=#82b366;fillColor=#d5e8d4;align=center;verticalAlign=middle;whiteSpace=wrap;rounded=0;" vertex="1" parent="1">
          <mxGeometry x="1000" y="452.5" width="110" height="55" as="geometry" />
        </mxCell>
        <mxCell id="lsxHzdbqnV-ghvsLPrdJ-44" value="诊断周期小于20ms(T)" style="text;html=1;strokeColor=#82b366;fillColor=#d5e8d4;align=center;verticalAlign=middle;whiteSpace=wrap;rounded=0;" vertex="1" parent="1">
          <mxGeometry x="1000" y="520" width="90" height="30" as="geometry" />
        </mxCell>
      </root>
    </mxGraphModel>
  </diagram>
</mxfile>
